<?xml version="1.0" encoding="iso-8859-1"?>
<!-- Generator: Adobe Illustrator 18.0.0, SVG Export Plug-In . SVG Version: 6.00 Build 0)  -->
<!DOCTYPE svg PUBLIC "-//W3C//DTD SVG 1.1//EN" "http://www.w3.org/Graphics/SVG/1.1/DTD/svg11.dtd">
<svg version="1.1" id="Capa_1" xmlns="http://www.w3.org/2000/svg" xmlns:xlink="http://www.w3.org/1999/xlink" x="0px" y="0px"
	 viewBox="0 0 399.888 399.888" style="enable-background:new 0 0 399.888 399.888;" xml:space="preserve">
<g>
	<path d="M322.833,381.871c-0.258-0.005-26.109-0.57-53.849-7.807c-24.776-6.463-56.088-19.696-64.552-46.03
		c-15.083-46.925,34.861-113.407,74.992-166.826c30.772-40.96,55.077-73.313,53.277-95.816
		c-1.101-13.765-12.274-26.923-33.208-39.109C283.924,17.22,262.719,8.47,236.467,0.274c-3.164-0.987-6.528,0.776-7.516,3.939
		c-0.987,3.163,0.776,6.528,3.939,7.515c74.494,23.257,87.015,44.204,87.848,54.62c1.438,17.972-23.989,51.819-50.909,87.652
		c-43.97,58.529-93.806,124.867-76.822,177.705c19.092,59.399,125.096,62.078,129.599,62.163c0.039,0,0.077,0.001,0.115,0.001
		c3.261,0,5.935-2.612,5.997-5.887C328.782,384.67,326.146,381.933,322.833,381.871z"/>
	<path d="M244.412,89.767c4.036-12.106,2.866-23.767-3.476-34.656C219.323,17.997,143.113,2.62,139.879,1.983
		c-3.25-0.642-6.406,1.477-7.046,4.728c-0.64,3.251,1.477,6.406,4.729,7.046c0.187,0.037,18.888,3.761,39.875,11.66
		c27.08,10.192,45.453,22.548,53.131,35.733c4.594,7.889,5.399,16.009,2.461,24.823c-4.137,12.41-31.346,35.429-60.153,59.799
		c-31.966,27.042-68.196,57.692-94.246,89.904c-31.357,38.775-41,71.624-29.48,100.423c10.19,25.477,26.378,45.971,49.486,62.653
		c1.063,0.767,2.29,1.136,3.507,1.136c1.861,0,3.697-0.864,4.87-2.489c1.939-2.687,1.334-6.437-1.353-8.376
		c-21.208-15.311-36.049-34.08-45.369-57.381c-22.388-55.97,60.103-125.754,120.334-176.709
		C213.357,127.242,239.211,105.37,244.412,89.767z"/>
	<path d="M90.915,128.189c-2.083,2.578-1.682,6.355,0.895,8.438c2.577,2.083,6.354,1.682,8.438-0.895L111,122.428v28.273
		c0,3.313,2.686,6,6,6s6-2.687,6-6v-28.273l10.752,13.304c1.186,1.467,2.92,2.229,4.67,2.229c1.324,0,2.657-0.436,3.768-1.333
		c2.577-2.083,2.978-5.86,0.895-8.438L123,103.336V92.081l10.752,13.305c1.186,1.467,2.92,2.229,4.67,2.229
		c1.324,0,2.657-0.436,3.768-1.333c2.577-2.083,2.978-5.86,0.895-8.438L123,72.99V61.734l10.752,13.304
		c1.186,1.467,2.92,2.229,4.67,2.229c1.324,0,2.657-0.437,3.768-1.333c2.577-2.083,2.978-5.861,0.895-8.438l-21.418-26.503
		c-1.139-1.41-2.854-2.229-4.667-2.229c-1.813,0-3.527,0.819-4.667,2.229L90.915,67.496c-2.083,2.577-1.682,6.355,0.895,8.438
		c2.577,2.082,6.354,1.682,8.438-0.896L111,61.734V72.99L90.915,97.843c-2.083,2.578-1.682,6.355,0.895,8.438
		c2.577,2.083,6.354,1.682,8.438-0.895L111,92.081v11.255L90.915,128.189z"/>
	<path d="M344.764,260.612c1.186,1.467,2.92,2.229,4.67,2.229c1.324,0,2.657-0.436,3.768-1.333c2.577-2.083,2.978-5.86,0.895-8.438
		L323,214.591v-26.857l21.763,26.929c1.186,1.467,2.92,2.229,4.67,2.229c1.324,0,2.657-0.436,3.768-1.333
		c2.577-2.083,2.978-5.86,0.895-8.438l-32.43-40.128c-1.139-1.409-2.854-2.229-4.667-2.229c-1.813,0-3.527,0.819-4.667,2.229
		l-32.43,40.128c-2.083,2.578-1.682,6.355,0.895,8.438c2.577,2.083,6.354,1.682,8.438-0.895L311,187.735v26.857l-31.096,38.478
		c-2.083,2.578-1.682,6.355,0.895,8.438c2.577,2.083,6.354,1.682,8.438-0.895L311,233.683v26.857l-31.096,38.478
		c-2.083,2.578-1.682,6.355,0.895,8.438c2.577,2.083,6.354,1.682,8.438-0.895L311,279.631v51.57c0,3.313,2.687,6,6,6s6-2.687,6-6
		v-51.57l21.763,26.929c1.186,1.467,2.92,2.229,4.67,2.229c1.324,0,2.657-0.436,3.768-1.333c2.577-2.083,2.978-5.86,0.895-8.438
		L323,260.54v-26.857L344.764,260.612z"/>
</g>
<g>
</g>
<g>
</g>
<g>
</g>
<g>
</g>
<g>
</g>
<g>
</g>
<g>
</g>
<g>
</g>
<g>
</g>
<g>
</g>
<g>
</g>
<g>
</g>
<g>
</g>
<g>
</g>
<g>
</g>
</svg>
