<svg height="512pt" viewBox="-56 0 511 512" width="512pt" xmlns="http://www.w3.org/2000/svg"><path d="m388.191406 390.851562c14.992188-10.078124 13.265625-41.582031 3.054688-69.660156-11.046875-30.34375-32.257813-57.410156-51.445313-50.425781l-7.480469 2.722656c5.390626-14.183593 8.113282-30.851562 8.113282-49.792969 0-49.53125-26.367188-102.84375-27.492188-105.089843-1.386718-2.78125-4.316406-4.433594-7.425781-4.160157-3.09375.265626-5.710937 2.394532-6.601563 5.367188-3.023437 10.074219-7.15625 19.839844-12.28125 29.035156-3.117187 5.605469-8.621093 5.308594-10.230468 5.085938-1.640625-.230469-7.109375-1.46875-8.609375-7.832032-23.59375-100.363281-61.265625-141.949218-62.859375-143.671874-1.433594-1.546876-3.445313-2.429688-5.558594-2.429688-2.109375 0-4.125.882812-5.558594 2.429688-1.59375 1.722656-39.265625 43.308593-62.859375 143.667968-1.496093 6.367188-6.964843 7.605469-8.609375 7.835938-1.609375.222656-7.113281.519531-10.234375-5.09375-5.121093-9.183594-9.253906-18.953125-12.277343-29.027344-.890626-2.972656-3.507813-5.101562-6.601563-5.367188-3.113281-.273437-6.039063 1.382813-7.425781 4.160157-.660156 1.3125-16.183594 32.625-23.632813 69.546875-.828125 4.101562 1.828125 8.09375 5.925781 8.921875 4.105469.832031 8.097657-1.828125 8.921876-5.925781 3.824218-18.949219 10.039062-36.632813 14.945312-48.882813 2.078125 4.757813 4.386719 9.417969 6.910156 13.945313 5.105469 9.179687 15.140625 14.171874 25.558594 12.722656 10.492188-1.460938 18.839844-9.0625 21.261719-19.367188 17.269531-73.453125 42.578125-114.386718 53.675781-129.742187 11.105469 15.367187 36.40625 56.304687 53.671875 129.742187 2.425781 10.304688 10.773437 17.90625 21.265625 19.367188 10.417969 1.453125 20.453125-3.542969 25.554688-12.714844 2.523437-4.53125 4.832031-9.183594 6.910156-13.941406 7.652344 19.136718 18.507812 51.542968 18.507812 81.414062 0 24.558594-4.925781 44.503906-14.640625 59.28125-11.242187 17.105469-28.222656 26.144532-45.851562 30.910156.375-.464843.75-.929687 1.113281-1.414062 7.503906-10.015625 11.308594-23.464844 11.308594-39.980469 0-26.902343-14.242188-55.703125-14.847656-56.917969-1.386719-2.777343-4.328126-4.433593-7.421876-4.160156-3.09375.265625-5.710937 2.394532-6.605468 5.367188-2.242188 7.464844-5.421875 13.636718-8.472656 18.398437-1.273438-5.789062-2.683594-11.433593-4.21875-16.882812-1.132813-4.027344-5.316407-6.371094-9.34375-5.238281-4.027344 1.132812-6.371094 5.316406-5.238282 9.34375 2.773438 9.84375 5.117188 20.367187 6.972656 31.285156.460938 2.695312 2.335938 4.933594 4.90625 5.855468 2.578126.925782 5.445313.390626 7.515626-1.394531.445312-.386719 8.078124-7.085937 14.984374-19.5 3.308594 9.613281 6.621094 22.148438 6.621094 33.84375 0 13.164063-2.789062 23.558594-8.28125 30.894531-10.1875 13.585938-28.902344 15.554688-43.96875 15.75h-20.832031c-15.328125-.210937-34.195313-2.242187-44.289063-16.121093-5.320312-7.300781-8.015624-17.570313-8.015624-30.523438 0-11.695312 3.3125-24.230469 6.625-33.84375 6.902343 12.410157 14.539062 19.113281 14.984374 19.5 2.066407 1.785157 4.9375 2.320313 7.511719 1.394531 2.574219-.921874 4.449219-3.160156 4.90625-5.855468 7.507813-44.195313 21.078125-70.304688 28.679688-82.152344 2.746093 4.257812 6.253906 10.351562 9.957031 18.445312 1.738281 3.800782 6.234375 5.480469 10.035156 3.738282 3.804688-1.742188 5.480469-6.234375 3.738282-10.039063-9.332032-20.414062-17.828126-29.714843-18.183594-30.101562-1.433594-1.550781-3.449219-2.429688-5.558594-2.429688-2.113281 0-4.128906.882813-5.5625 2.429688-.984375 1.066406-22.4375 24.800781-34.933594 81.597656-3.050781-4.761719-6.226562-10.933594-8.46875-18.394531-.894531-2.972656-3.511718-5.101563-6.605468-5.367188-3.097657-.261718-6.039063 1.382813-7.425782 4.160156-.605468 1.214844-14.84375 30.015626-14.84375 56.917969 0 16.226563 3.671875 29.496094 10.910156 39.4375.488282.671875.992188 1.320313 1.5 1.953125-17.761718-4.804687-34.863281-13.941406-46.105468-31.308594-9.386719-14.492187-14.222656-33.910156-14.371094-57.707031-.027344-4.167969-3.414062-7.527343-7.574219-7.527343-.015625 0-.03125 0-.046875 0-4.183594.027343-7.554687 3.441406-7.527344 7.621093.113282 18.246094 2.789063 34.355469 7.964844 48.140625l-6.410156-2.332031c-5.203125-1.894531-15.964844-2.835937-29.574219 12.132813-8.527343 9.378906-16.292969 22.980468-21.859375 38.289062-5.574218 15.316406-8.3671872 30.722656-7.867187 43.386719.625 15.679687 6.089843 22.917969 10.9375 26.261719-15.023438 10.066406-13.296875 41.589843-3.074219 69.683593 9.328125 25.625 26.96875 51.480469 45.347656 51.480469 2.109375 0 4.160156-.355469 6.09375-1.058594.015625-.007812.027344-.011718.039063-.019531l82.0625-29.867187c3.929687-1.433594 5.957031-5.777344 4.527343-9.707032-1.429687-3.933594-5.777343-5.957031-9.710937-4.527344l-62.691406 22.820313c2.1875-14.144531-.875-32.929687-7.230469-50.390625-6.097656-16.75-15.746094-33.597656-26.832031-43.257812l169.535156-61.710938c.023437 0 3.117187.011719 4.679687.011719 28.441407 0 80.1875-1.847657 107.601563-40.878907l23.125-8.414062c5.28125-1.914062 21.453125 12.324219 32.027344 41.371094 10.5625 29.042968 7.332031 50.347656 2.050781 52.269531l-208.605469 75.925781c-3.933593 1.429688-5.960937 5.777344-4.527343 9.707032 1.425781 3.925781 5.878906 5.917968 9.707031 4.527343l24.203125-8.808593 139.960937 50.945312h.003907c1.933593.703125 3.984374 1.058594 6.09375 1.058594h.003906c18.378906 0 36.015625-25.855469 45.34375-51.476563 10.21875-28.078125 11.945312-59.589843-3.054688-69.667969zm-335.554687 53.582032c10.558593 29 7.351562 50.285156 2.085937 52.261718-15.585937 1.246094-28.152344-30.652343-32.046875-41.355468-10.570312-29.046875-7.339843-50.351563-2.058593-52.273438.269531-.101562.570312-.148437.910156-.148437 6.539062 0 21.382812 14.78125 31.109375 41.515625zm-20.613281-61.636719-11.410157-4.15625c-2.109375-.769531-4.542969-5.683594-4.898437-14.667969-.421875-10.585937 2.117187-24.289062 6.964844-37.601562 4.839843-13.308594 11.703124-25.441406 18.832031-33.28125 6.046875-6.652344 11.066406-8.863282 13.1875-8.089844l21.875 7.960938c22.257812 32.136718 60.863281 39.34375 89.851562 40.910156zm300.789062 56.453125c-6.355469 17.464844-9.421875 36.25-7.230469 50.390625l-103.597656-37.707031 129.347656-47.074219c-7.546875 9.550781-14.007812 21.992187-18.519531 34.390625zm44.199219 16.089844c-9.730469 26.730468-19.269531 33.90625-22.023438 36.4375-1.878906 1.726562-7.710937 5.746094-10 4.925781-5.292969-1.894531-8.511719-23.226563 2.058594-52.269531 9.730469-26.734375 24.570313-41.515625 31.109375-41.515625.339844 0 .632812.046875.902344.144531h.007812c.003906.003906.007813.003906.007813.003906 5.28125 1.9375 8.503906 23.238282-2.0625 52.273438zm0 0"/><path d="m70.589844 326.417969 29.964844 10.90625c.855468.3125 1.730468.460937 2.589843.460937 3.09375 0 5.996094-1.910156 7.117188-4.984375 1.429687-3.933593-.597657-8.277343-4.527344-9.710937l-29.964844-10.90625c-3.933593-1.425782-8.277343.597656-9.707031 4.527344-1.433594 3.929687.597656 8.277343 4.527344 9.707031zm0 0"/><path d="m126.25 387.945312c-1.429688-3.925781-5.777344-5.953124-9.707031-4.523437l-37.457031 13.632813c-3.929688 1.429687-5.960938 5.773437-4.527344 9.707031 1.117187 3.074219 4.023437 4.984375 7.117187 4.984375.859375 0 1.734375-.148438 2.589844-.460938l37.457031-13.632812c3.929688-1.429688 5.957032-5.773438 4.527344-9.707032zm0 0"/><path d="m171.855469 414.191406 23.222656-8.453125c3.929687-1.429687 5.957031-5.777343 4.527344-9.707031-1.429688-3.933594-5.773438-5.960938-9.707031-4.527344l-23.222657 8.449219c-3.929687 1.433594-5.957031 5.777344-4.527343 9.710937 1.117187 3.074219 4.023437 4.984376 7.117187 4.984376.859375 0 1.734375-.148438 2.589844-.457032zm0 0"/><path d="m296.539062 337.785156c.859376 0 1.738282-.148437 2.589844-.460937l29.964844-10.90625c3.933594-1.429688 5.960938-5.777344 4.527344-9.707031-1.429688-3.929688-5.773438-5.957032-9.707032-4.527344l-29.964843 10.90625c-3.929688 1.429687-5.957031 5.777344-4.527344 9.707031 1.121094 3.078125 4.023437 4.988281 7.117187 4.988281zm0 0"/><path d="m272.070312 390.015625c1.121094 3.078125 4.023438 4.984375 7.121094 4.984375.855469 0 1.734375-.148438 2.589844-.457031l29.964844-10.90625c3.929687-1.433594 5.957031-5.777344 4.527344-9.707031-1.433594-3.933594-5.773438-5.960938-9.710938-4.527344l-29.964844 10.90625c-3.929687 1.429687-5.957031 5.777344-4.527344 9.707031zm0 0"/><path d="m119.132812 452.097656c.859376 0 1.734376-.148437 2.589844-.457031l20.257813-7.375c3.929687-1.429687 5.957031-5.777344 4.527343-9.707031-1.429687-3.929688-5.777343-5.957032-9.710937-4.527344l-20.253906 7.375c-3.929688 1.429688-5.957031 5.777344-4.527344 9.707031 1.117187 3.074219 4.023437 4.984375 7.117187 4.984375zm0 0"/><path d="m224.6875 354.238281c1.324219-.480469 5.742188-.972656 8.609375 2.941407 1.988281 2.71875 5.535156 3.796874 8.699219 2.640624l20.226562-7.359374c3.933594-1.433594 5.960938-5.777344 4.527344-9.707032-1.429688-3.933594-5.769531-5.960937-9.707031-4.527344l-15.597657 5.675782c-6.847656-5.632813-15.679687-6.179688-21.941406-3.894532-6.257812 2.277344-12.667968 8.371094-14.292968 17.082032l-15.59375 5.675781c-3.933594 1.429687-5.960938 5.777344-4.53125 9.707031 1.121093 3.078125 4.027343 4.988282 7.121093 4.988282.859375 0 1.734375-.148438 2.585938-.460938l20.230469-7.359375c3.164062-1.152344 5.1875-4.257813 4.964843-7.617187-.320312-4.839844 3.382813-7.304688 4.699219-7.785157zm0 0"/><path d="m284.664062 79.984375c.214844 4.039063 3.558594 7.167969 7.554688 7.167969.136719 0 .273438-.003906.410156-.011719l5.042969-.269531c4.175781-.222656 7.382813-3.792969 7.15625-7.96875-.222656-4.175782-3.808594-7.347656-7.964844-7.15625l-5.042969.269531c-4.179687.222656-7.382812 3.792969-7.15625 7.96875zm0 0"/><path d="m270.851562 67.574219c.21875 4.039062 3.558594 7.171875 7.554688 7.171875.136719 0 .273438-.003906.414062-.011719 4.175782-.222656 7.382813-3.792969 7.15625-7.96875l-.269531-5.039063c-.222656-4.179687-3.8125-7.363281-7.96875-7.160156-4.175781.222656-7.378906 3.792969-7.15625 7.96875zm0 0"/><path d="m121.617188 59.582031c4.179687 0 7.574218-3.390625 7.574218-7.574219v-5.046874c0-4.183594-3.394531-7.574219-7.574218-7.574219-4.183594 0-7.574219 3.390625-7.574219 7.574219v5.046874c0 4.183594 3.390625 7.574219 7.574219 7.574219zm0 0"/><path d="m103.4375 72.710938h5.050781c4.183594 0 7.574219-3.390626 7.574219-7.574219 0-4.183594-3.390625-7.574219-7.574219-7.574219h-5.050781c-4.183594 0-7.574219 3.390625-7.574219 7.574219 0 4.183593 3.390625 7.574219 7.574219 7.574219zm0 0"/></svg>