<?xml version="1.0" encoding="iso-8859-1"?>
<!-- Generator: Adobe Illustrator 19.0.0, SVG Export Plug-In . SVG Version: 6.00 Build 0)  -->
<svg version="1.1" id="Capa_1" xmlns="http://www.w3.org/2000/svg" xmlns:xlink="http://www.w3.org/1999/xlink" x="0px" y="0px"
	 viewBox="0 0 512.001 512.001" style="enable-background:new 0 0 512.001 512.001;" xml:space="preserve">
<g>
	<g>
		<path d="M271,392h-7.5V280.472c0-4.143-3.357-7.5-7.5-7.5c-4.142,0-7.5,3.357-7.5,7.5V392H241c-4.142,0-7.5,3.357-7.5,7.5v60
			c0,4.136-3.364,7.5-7.5,7.5s-7.5-3.364-7.5-7.5c0-12.406-10.093-22.5-22.5-22.5s-22.5,10.094-22.5,22.5
			c0,28.948,23.551,52.5,52.5,52.5c28.949,0,52.5-23.552,52.5-52.5v-60C278.5,395.357,275.143,392,271,392z M263.5,459.5
			c0,20.678-16.822,37.5-37.5,37.5s-37.5-16.822-37.5-37.5c0-4.136,3.364-7.5,7.5-7.5s7.5,3.364,7.5,7.5
			c0,12.406,10.093,22.5,22.5,22.5s22.5-10.094,22.5-22.5V407h15V459.5z"/>
	</g>
</g>
<g>
	<g>
		<path d="M437.02,104.98C390.44,58.401,329.069,31.992,263.5,30.118V7.5c0-4.143-3.357-7.5-7.5-7.5c-4.142,0-7.5,3.357-7.5,7.5
			v22.618c-65.569,1.874-126.94,28.283-173.52,74.862C26.629,153.332,0,217.62,0,286c0,4.143,3.358,7.5,7.5,7.5s7.5-3.357,7.5-7.5
			c0-3.894,0.101-7.765,0.285-11.615c23.774-21.771,60.405-21.868,84.284-0.274C99.46,278.06,99.4,282.022,99.4,286
			c0,4.143,3.358,7.5,7.5,7.5c4.142,0,7.5-3.357,7.5-7.5c0-3.91,0.058-7.804,0.167-11.682
			c11.567-10.573,26.447-16.365,42.219-16.365c15.703,0,30.525,5.739,42.07,16.224c-0.036,3.926-0.056,7.867-0.056,11.824
			c0,4.143,3.358,7.5,7.5,7.5c4.142,0,7.5-3.357,7.5-7.5c0-3.932,0.019-7.848,0.056-11.749c23.828-21.686,60.463-21.686,84.289,0
			c0.036,3.901,0.056,7.817,0.056,11.749c0,4.143,3.357,7.5,7.5,7.5s7.5-3.357,7.5-7.5c0-3.956-0.02-7.897-0.056-11.823
			c11.545-10.486,26.366-16.225,42.071-16.225c15.773,0,30.651,5.792,42.218,16.365c0.109,3.878,0.167,7.773,0.167,11.683
			c0,4.143,3.357,7.5,7.5,7.5s7.5-3.357,7.5-7.5c0-3.977-0.06-7.94-0.169-11.887c23.876-21.595,60.51-21.5,84.284,0.274
			c0.184,3.849,0.285,7.72,0.285,11.614c0,4.143,3.357,7.5,7.5,7.5s7.5-3.357,7.5-7.5C512,217.62,485.371,153.332,437.02,104.98z
			 M100.466,255.885c-25.1-16.645-57.814-17.172-83.384-1.551C29.652,158.99,98.169,81.043,188.475,54.642
			c-16.33,12.687-31.318,30.086-44.336,51.783C119.609,147.308,104.457,199.537,100.466,255.885z M213.503,108.812
			c-8.025,40.127-12.998,91.376-14.336,146.714c-12.498-8.174-27.099-12.574-42.381-12.574c-14.801,0-28.968,4.118-41.2,11.803
			c4.047-53.166,18.394-102.244,41.416-140.613c21.064-35.107,47.341-57.784,75.667-65.845
			C225.331,61.352,218.977,81.443,213.503,108.812z M214.178,255.181c1.339-54.205,6.205-104.285,14.033-143.426
			C238.771,58.953,251.006,45,256,45s17.229,13.952,27.789,66.755c7.828,39.141,12.693,89.222,14.033,143.426
			C272.423,238.943,239.576,238.943,214.178,255.181z M355.215,242.952c-15.282,0-29.884,4.399-42.382,12.574
			c-1.338-55.338-6.31-106.587-14.336-146.714c-5.474-27.369-11.828-47.46-19.165-60.515c28.326,8.061,54.602,30.738,75.666,65.845
			c23.021,38.368,37.369,87.446,41.416,140.612C384.182,247.07,370.016,242.952,355.215,242.952z M454.429,242.952
			c-15.493,0-30.285,4.523-42.897,12.917c-3.992-56.342-19.144-108.565-43.672-149.444c-13.017-21.696-28.005-39.095-44.335-51.783
			c90.302,26.4,158.818,104.341,171.391,199.682C482.847,246.922,468.946,242.952,454.429,242.952z"/>
	</g>
</g>
<g>
</g>
<g>
</g>
<g>
</g>
<g>
</g>
<g>
</g>
<g>
</g>
<g>
</g>
<g>
</g>
<g>
</g>
<g>
</g>
<g>
</g>
<g>
</g>
<g>
</g>
<g>
</g>
<g>
</g>
</svg>
