<?xml version="1.0" encoding="iso-8859-1"?>
<!-- Generator: Adobe Illustrator 19.0.0, SVG Export Plug-In . SVG Version: 6.00 Build 0)  -->
<svg version="1.1" id="Layer_1" xmlns="http://www.w3.org/2000/svg" xmlns:xlink="http://www.w3.org/1999/xlink" x="0px" y="0px"
	 viewBox="0 0 511.999 511.999" style="enable-background:new 0 0 511.999 511.999;" xml:space="preserve">
<g>
	<g>
		<path d="M85.636,67.25c-26.754,0-48.522,21.767-48.522,48.522c0,26.756,21.767,48.522,48.522,48.522
			c26.756,0,48.523-21.767,48.523-48.522C134.159,89.017,112.392,67.25,85.636,67.25z M85.637,149.243
			c-18.456,0-33.472-15.014-33.472-33.471c0-18.457,15.015-33.471,33.472-33.471s33.472,15.015,33.472,33.471
			C119.109,134.228,104.093,149.243,85.637,149.243z"/>
	</g>
</g>
<g>
	<g>
		<path d="M85.637,30.135c-4.157,0-7.525,3.369-7.525,7.525v15.138c0,4.156,3.368,7.525,7.525,7.525s7.525-3.369,7.525-7.525V37.66
			C93.162,33.504,89.794,30.135,85.637,30.135z"/>
	</g>
</g>
<g>
	<g>
		<path d="M146.193,55.217c-2.94-2.938-7.704-2.939-10.644,0l-10.704,10.704c-2.939,2.939-2.939,7.704,0,10.642
			c1.47,1.47,3.395,2.204,5.322,2.204c1.925,0,3.852-0.734,5.322-2.203l10.704-10.704C149.132,62.921,149.132,58.156,146.193,55.217
			z"/>
	</g>
</g>
<g>
	<g>
		<path d="M163.749,108.247h-15.137c-4.157,0-7.525,3.369-7.525,7.525c0,4.156,3.368,7.525,7.525,7.525h15.137
			c4.157,0,7.525-3.369,7.525-7.525C171.274,111.616,167.906,108.247,163.749,108.247z"/>
	</g>
</g>
<g>
	<g>
		<path d="M146.193,165.684l-10.704-10.703c-2.941-2.939-7.705-2.939-10.644,0s-2.939,7.704,0,10.642l10.704,10.704
			c1.47,1.469,3.396,2.204,5.322,2.204s3.852-0.734,5.322-2.204C149.132,173.388,149.132,168.623,146.193,165.684z"/>
	</g>
</g>
<g>
	<g>
		<path d="M85.637,171.222c-4.157,0-7.525,3.369-7.525,7.525v15.138c0,4.156,3.368,7.525,7.525,7.525s7.525-3.369,7.525-7.525
			v-15.138C93.162,174.591,89.794,171.222,85.637,171.222z"/>
	</g>
</g>
<g>
	<g>
		<path d="M46.43,154.981c-2.939-2.939-7.703-2.939-10.643,0l-10.704,10.703c-2.94,2.939-2.94,7.704-0.001,10.643
			c1.47,1.469,3.395,2.204,5.322,2.204c1.925,0,3.852-0.734,5.322-2.204l10.704-10.704C49.368,162.684,49.368,157.919,46.43,154.981
			z"/>
	</g>
</g>
<g>
	<g>
		<path d="M22.662,108.247H7.525c-4.157,0-7.525,3.369-7.525,7.525c0,4.156,3.368,7.525,7.525,7.525h15.137
			c4.157,0,7.525-3.369,7.525-7.525C30.187,111.616,26.819,108.247,22.662,108.247z"/>
	</g>
</g>
<g>
	<g>
		<path d="M46.43,65.921L35.725,55.217c-2.94-2.939-7.704-2.939-10.643,0c-2.939,2.939-2.939,7.704,0,10.643l10.704,10.704
			c1.47,1.469,3.396,2.203,5.322,2.203c1.925,0,3.852-0.734,5.322-2.204C49.368,73.624,49.368,68.859,46.43,65.921z"/>
	</g>
</g>
<g>
	<g>
		<path d="M508.356,457.18c-13.116-8.896-28.324-12.925-43.34-12.113c-13.861-19.093-40.008-35.461-76.032-47.525
			c-22.361-7.488-47.316-12.893-73.849-16.102l53.915-135.271c8.135,5.875,15.235,12.853,21.038,20.747
			c1.918,2.61,4.877,4.087,8.141,3.292c17.807-3.229,36.69-1.16,54.628,5.989c18.073,7.203,33.291,18.807,44.008,33.557
			c1.437,1.977,3.714,3.101,6.087,3.101c0.602,0,1.21-0.072,1.812-0.222c2.974-0.737,5.204-3.205,5.638-6.238
			c0.284-1.991,6.799-49.36-8.723-100.965c-1.196-3.98-5.402-6.235-9.373-5.039c-3.98,1.197-6.236,5.394-5.038,9.373
			c9.06,30.124,10.049,59.251,9.493,77.019c-10.74-10.394-23.739-18.752-38.332-24.568c-16.59-6.612-33.947-9.423-50.843-8.3
			c0.128-0.389,0.244-0.769,0.37-1.156c5.88-17.964,10.265-36.477,12.422-55.27c1.973-17.197,2.157-34.568-0.008-51.756
			c-1.254-9.954-3.388-19.799-6.45-29.355c-0.022-0.069-0.044-0.143-0.067-0.212c27.002,14.629,47.758,36.185,61.846,64.284
			c1.862,3.715,6.384,5.216,10.099,3.354c3.715-1.862,5.216-6.384,3.354-10.1c-18.674-37.246-47.974-64.037-87.111-79.638
			c-53.828-21.451-109.852-14.395-162.006,20.406c-38.932,25.977-61.729,57.839-62.681,59.182c-1.771,2.5-1.848,5.824-0.197,8.404
			c1.651,2.58,4.697,3.903,7.714,3.342c17.927-3.333,36.955-1.288,55.027,5.915c17.81,7.099,32.849,18.471,43.541,32.917
			c2.08,2.81,5.114,4.538,8.675,3.48c9.557-1.694,19.418-1.862,29.274-0.544l-60.123,150.855c-1.517-0.013-3.029-0.04-4.551-0.04
			c-34.684,0-67.831,3.455-98.52,10.269c-4.057,0.901-6.616,4.92-5.714,8.978c0.901,4.057,4.913,6.617,8.977,5.715
			c29.202-6.484,62.142-9.911,95.257-9.911c15.696,0,31.402,0.746,47.022,2.298c0.056,0.005,0.111,0.004,0.168,0.008
			c29.047,2.88,56.27,8.423,80.299,16.471c28.686,9.607,50.833,22.267,63.831,36.298c-6.558,2.037-12.901,5.057-18.818,9.069
			c-18.905,12.821-43.336,12.821-62.242,0c-24.039-16.303-55.103-16.302-79.139,0c-18.905,12.821-43.336,12.821-62.242,0
			c-24.038-16.303-55.102-16.302-79.139,0c-18.905,12.821-43.336,12.821-62.242,0c-5.916-4.012-12.259-7.033-18.817-9.069
			c12.981-14.011,35.088-26.657,63.717-36.259c3.94-1.321,6.063-5.587,4.742-9.528c-1.321-3.94-5.585-6.064-9.527-4.742
			c-35.961,12.06-62.068,28.415-75.913,47.485c-15.017-0.812-30.224,3.219-43.34,12.113c-3.44,2.333-4.337,7.012-2.004,10.452
			c2.332,3.44,7.008,4.338,10.452,2.005c11.17-7.575,24.27-10.672,37.019-9.295c0.458,0.099,0.92,0.162,1.384,0.173
			c8.348,1.116,16.51,4.151,23.841,9.123c24.036,16.301,55.099,16.303,79.138,0c18.907-12.822,43.339-12.821,62.243,0
			c24.037,16.301,55.1,16.303,79.138,0c18.906-12.822,43.338-12.821,62.243,0c12.019,8.151,25.794,12.227,39.57,12.227
			c13.775,0,27.55-4.076,39.57-12.227c7.314-4.96,15.456-7.993,23.785-9.115c0.493-0.009,0.984-0.076,1.472-0.184
			c12.739-1.368,25.826,1.729,36.986,9.298c3.44,2.333,8.12,1.436,10.452-2.005C512.692,464.193,511.795,459.513,508.356,457.18z
			 M302.325,211.403c0.08-0.17,0.163-0.338,0.244-0.508c7.01-14.674,15.187-28.858,24.726-42.04
			c2.332-3.222,1.664-8.085-1.684-10.508c-3.275-2.371-8.144-1.584-10.509,1.685c-7.659,10.583-14.464,21.784-20.571,33.329
			c-2.206,4.172-4.447,8.394-6.339,12.721c-0.033,0.07-0.068,0.14-0.101,0.21c-11.496-12.441-26.025-22.34-42.62-28.952
			c-14.597-5.818-29.789-8.691-44.735-8.535c10.047-11.299,26.551-27.793,48.035-42.063c21.302-14.15,43.29-23.387,65.35-27.454
			c21.343-3.934,42.879-3.011,64.249,2.73c-0.086,0.047-0.178,0.099-0.264,0.146c-11.561,6.345-22.28,14.174-32.012,23.063
			c-3.796,3.467-7.499,7.031-11.047,10.75c-2.868,3.008-2.755,7.772,0.253,10.64c3.008,2.868,7.771,2.755,10.64-0.253
			c9.646-10.118,20.538-19.371,32.428-26.852c5.48-3.449,11.2-6.565,17.173-9.077c1.569,3.559,3.61,8.828,5.527,15.729
			c9.074,32.689,6.622,67.965-1.332,100.608c-1.711,7.02-3.688,13.979-5.93,20.847c-0.023,0.071-0.048,0.144-0.071,0.216
			c-10.24-10.834-22.815-19.68-37.052-26.047c-0.195-0.087-0.39-0.174-0.585-0.26C339.26,214.096,320.73,210.387,302.325,211.403z
			 M299.576,379.82c-3.489-0.302-7.002-0.56-10.535-0.788c-3.905-0.268-7.817-0.465-11.728-0.624l59.02-148.079
			c3.572,1.023,7.088,2.24,10.531,3.633c0.559,0.227,9.182,4.177,9.166,4.217L299.576,379.82z"/>
	</g>
</g>
<g>
</g>
<g>
</g>
<g>
</g>
<g>
</g>
<g>
</g>
<g>
</g>
<g>
</g>
<g>
</g>
<g>
</g>
<g>
</g>
<g>
</g>
<g>
</g>
<g>
</g>
<g>
</g>
<g>
</g>
</svg>
