<svg height="682pt" viewBox="-21 -50 682.66709 682" width="682pt" xmlns="http://www.w3.org/2000/svg"><g fill-rule="evenodd"><path d="m636.707031 559.65625-20.28125-22.085938 13.929688-29.691406c2.929687-6.25.238281-13.691406-6.011719-16.625s-13.691406-.238281-16.625 6.011719l-9.574219 20.402344-39.007812-42.472657-62.609375-68.175781c-4.667969-5.082031-12.574219-5.417969-17.660156-.75-5.082032 4.667969-5.421876 12.578125-.746094 17.660157l59.308594 64.589843v67.09375h-202.644532v-287.753906l75.699219 82.421875c4.667969 5.082031 12.578125 5.421875 17.660156.753906 5.082031-4.667968 5.417969-12.578125.75-17.664062l-97.402343-106.058594c-.050782-.054688-.109376-.101562-.160157-.15625-.175781-.183594-.359375-.367188-.546875-.535156-.121094-.113282-.238281-.230469-.367187-.339844-.199219-.167969-.402344-.332031-.613281-.488281-.121094-.089844-.246094-.183594-.367188-.273438-.234375-.164062-.476562-.316406-.726562-.460937-.109376-.066406-.214844-.136719-.324219-.195313-.285157-.164062-.578125-.304687-.878907-.445312-.078124-.035157-.15625-.078125-.234374-.113281-.34375-.152344-.695313-.277344-1.054688-.398438-.042969-.015625-.082031-.03125-.121094-.046875-.390625-.125-.789062-.226563-1.199218-.316406-.011719-.003907-.019532-.003907-.03125-.007813-.410157-.085937-.824219-.152344-1.246094-.195312-.007813 0-.023438-.007813-.03125-.007813-.429688-.042969-.859375-.066406-1.300782-.066406h-.003906c-.011718 0-.019531 0-.035156 0-.425781.003906-.847656.023437-1.265625.066406-.03125.007813-.070313.015625-.109375.019531-.390625.046876-.78125.105469-1.164062.183594-.035157.007813-.074219.019532-.113282.027344-.378906.082031-.75.179688-1.117187.296875-.0625.019531-.125.050781-.195313.070313-.332031.113281-.660156.234374-.976562.371093-.101563.042969-.203125.101563-.308594.144531-.265625.128907-.539062.261719-.804688.40625-.132812.074219-.257812.15625-.386718.234376-.222656.136718-.441406.273437-.65625.425781-.148438.097656-.285156.203125-.421875.3125-.191407.144531-.378907.289062-.5625.445312-.140625.121094-.277344.246094-.414063.375-.164062.160157-.332031.316407-.492187.488281-.058594.0625-.121094.117188-.179688.179688l-66.070312 71.9375-30.171875-44.070312h51c4.640625 0 8.898437-2.570313 11.0625-6.675782 2.15625-4.101562 1.867187-9.066406-.753906-12.894531l-76.539063-111.578125h24.121094c4.644531 0 8.902343-2.574219 11.066406-6.683594 2.15625-4.105468 1.863281-9.078125-.773437-12.902344l-69.277344-100.617187c-2.328125-3.390625-6.179688-5.410156-10.292969-5.410156-4.109375 0-7.960937 2.019531-10.292969 5.410156l-69.277344 100.617187c-2.628906 3.824219-2.929687 8.796876-.765624 12.902344 2.160156 4.109375 6.421874 6.683594 11.066406 6.683594h24.121094l-76.542969 111.578125c-2.625 3.828125-2.910157 8.792969-.75 12.894531 2.160156 4.105469 6.417969 6.675782 11.0625 6.675782h50.996093l-93.882812 137.136718c-2.621094 3.824219-2.90625 8.789063-.746094 12.890625 2.167969 4.101563 6.417969 6.671875 11.058594 6.671875h131.082031l-58.148437 63.316406-39.007813 42.472657-9.574219-20.402344c-2.9375-6.25-10.378906-8.941406-16.628906-6.011719-6.25 2.933594-8.9375 10.375-6.003906 16.625l13.929688 29.691406-20.28125 22.085938c-4.667969 5.082031-4.332032 12.992188.75 17.660156 2.402343 2.207032 5.429687 3.296875 8.453124 3.296875 3.378907 0 6.746094-1.363281 9.207032-4.046875l13.347656-14.53125 5.339844 11.386719c2.128906 4.53125 6.625 7.191406 11.328125 7.191406 1.777343 0 3.585937-.378906 5.296875-1.1875 6.25-2.933593 8.941406-10.375 6.007812-16.625l-9.699218-20.667969 24.246093-26.390624v52.367187c0 6.902344 5.59375 12.5 12.5 12.5h455.285157c6.90625 0 12.5-5.597656 12.5-12.5v-52.367187l24.238281 26.390624-9.695313 20.667969c-2.933594 6.25-.246094 13.691407 6.003906 16.625 1.71875.808594 3.527344 1.1875 5.304688 1.1875 4.695312 0 9.195312-2.660156 11.324219-7.191406l5.339843-11.386719 13.351563 14.53125c2.460937 2.683594 5.828125 4.042969 9.207031 4.042969 3.023438 0 6.050782-1.089844 8.453125-3.292969 5.082031-4.667968 5.417969-12.578125.75-17.660156zm-600.5-172.777344 93.878907-137.132812c2.617187-3.828125 2.90625-8.789063.742187-12.890625-2.160156-4.109375-6.417969-6.671875-11.058594-6.671875h-50.964843l76.535156-111.578125c2.625-3.828125 2.910156-8.792969.753906-12.894531-2.164062-4.105469-6.421875-6.675782-11.066406-6.675782h-24.066406l45.492187-66.074218 45.496094 66.074218h-24.070313c-4.640625 0-8.898437 2.570313-11.0625 6.675782-2.160156 4.101562-1.871094 9.066406.757813 12.894531l76.53125 111.578125h-50.964844c-4.640625 0-8.898437 2.5625-11.0625 6.671875-2.160156 4.101562-1.875 9.0625.742187 12.890625l46.835938 68.40625-37.636719 40.980468-25.476562 27.746094zm70.9375 101.640625 74.089844-80.683593s.003906-.003907.003906-.003907l26.71875-29.097656 101.828125-110.878906v287.753906h-202.640625zm0 0"/><path d="m529.351562 297.46875c16.164063 0 31.738282-3.476562 46.277344-10.332031 4.375-2.066407 7.167969-6.46875 7.167969-11.308594s-2.792969-9.242187-7.167969-11.304687c-29.148437-13.753907-47.988281-43.445313-47.988281-75.652344 0-32.207032 18.839844-61.898438 47.988281-75.648438 4.375-2.066406 7.167969-6.472656 7.167969-11.304687 0-4.839844-2.792969-9.242188-7.167969-11.308594-14.539062-6.859375-30.113281-10.335937-46.277344-10.335937-59.882812 0-108.605468 48.714843-108.605468 108.597656.003906 59.882812 48.722656 108.597656 108.605468 108.597656zm0-192.195312c3.9375 0 7.835938.265624 11.671876.800781-23.910157 20.375-38.378907 50.617187-38.378907 82.796875 0 32.175781 14.46875 62.421875 38.378907 82.796875-3.835938.539062-7.734376.800781-11.671876.800781-46.09375 0-83.601562-37.5-83.601562-83.597656-.003906-46.097656 37.5-83.597656 83.601562-83.597656zm0 0"/><path d="m441.003906 378.652344c0 6.882812 5.617188 12.5 12.5 12.5 6.886719 0 12.5-5.617188 12.5-12.5 0-6.886719-5.613281-12.5-12.5-12.5-6.882812 0-12.5 5.613281-12.5 12.5zm0 0"/></g></svg>