<svg height="512pt" viewBox="0 -3 512 512" width="512pt" xmlns="http://www.w3.org/2000/svg"><path d="m67.839844 314.222656c-3.710938-1.84375-8.210938-.332031-10.054688 3.378906l-34.390625 69.175782c-1.84375 3.707031-.332031 8.207031 3.378907 10.050781 3.734374 1.859375 8.222656.304687 10.054687-3.375l34.386719-69.175781c1.84375-3.710938.332031-8.210938-3.375-10.054688zm0 0"/><path d="m117.496094 314.222656c-3.710938-1.84375-8.210938-.332031-10.054688 3.378906l-34.390625 69.175782c-2.496093 5.023437 1.210938 10.839844 6.710938 10.839844 2.757812 0 5.410156-1.527344 6.722656-4.164063l34.386719-69.175781c1.847656-3.710938.332031-8.210938-3.375-10.054688zm0 0"/><path d="m416.175781 314.222656c-3.710937-1.84375-8.210937-.332031-10.054687 3.378906l-34.390625 69.175782c-1.84375 3.707031-.332031 8.207031 3.378906 10.050781 1.074219.535156 2.210937.789063 3.332031.789063 2.757813 0 5.410156-1.527344 6.722656-4.164063l34.390626-69.175781c1.839843-3.710938.332031-8.210938-3.378907-10.054688zm0 0"/><path d="m465.832031 314.222656c-3.710937-1.84375-8.210937-.332031-10.054687 3.378906l-34.386719 69.175782c-1.84375 3.707031-.332031 8.207031 3.375 10.050781 1.074219.535156 2.210937.789063 3.332031.789063 2.757813 0 5.414063-1.527344 6.722656-4.164063l34.390626-69.175781c1.84375-3.710938.332031-8.210938-3.378907-10.054688zm0 0"/><path d="m319.429688 291.59375-51.265626-1.074219 40.933594-128.808593c3.28125-10.320313-10.183594-17.574219-16.992187-9.128907l-137.335938 170.402344c-6.625 8.214844-.789062 20.476563 9.792969 20.476563h48.625l-71.410156 148.132812c-4.917969 10.195312 8.582031 19.226562 16.132812 10.816406l170.613282-189.832031c7.199218-8.007813 1.660156-20.757813-9.09375-20.984375zm-148.324219 173.695312 57.265625-118.785156c4.019531-8.347656-2.050782-18.042968-11.332032-18.042968h-47.417968l116.800781-144.921876-33.535156 105.519532c-2.542969 8.015625 3.320312 16.210937 11.726562 16.390625l49.226563 1.03125zm0 0"/><path d="m452.335938 131.542969c3.859374-59.96875-59.625-98.859375-108.1875-67.042969-27.210938-40.542969-71.117188-64.5-118.984376-64.5-72.042968 0-132.609374 54.871094-143.476562 127.847656-45.246094 1.242188-81.6875 39.886719-81.6875 87.207032l.00390625.6875c.24999975 33.773437 28.08203175 61.253906 62.03515575 61.253906h107.054688c4.144531 0 7.5-3.359375 7.5-7.5 0-4.144532-3.355469-7.5-7.5-7.5h-107.054688c-25.746093 0-46.847656-20.800782-47.035156-46.347656l-.003906-.59375c0-40.828126 32.722656-74.453126 72.851562-72.113282 4.003907.230469 7.480469-2.722656 7.894532-6.710937 7.117187-68.332031 62.5-121.230469 129.417968-121.230469 45.226563 0 86.546876 23.992188 110.53125 64.179688 2.375 3.972656 7.746094 4.863281 11.273438 1.894531 39.511719-33.265625 97.898438 2.011719 89.8125 54.90625-.597656 3.898437 1.925781 7.589843 5.773438 8.453125 31.546874 7.070312 54.445312 36.769531 54.445312 70.621094l-.003906.574218c-.1875 25.566406-21.289063 46.367188-47.035156 46.367188h-152.582032c-4.144531 0-7.5 3.355468-7.5 7.5 0 4.140625 3.355469 7.5 7.5 7.5h152.582032c33.953124 0 61.785156-27.480469 62.035156-61.277344l.003906-.664062c0-38.527344-24.332031-72.402344-59.664062-83.511719zm0 0"/></svg>