<?xml version="1.0" encoding="iso-8859-1"?>
<!-- Generator: Adobe Illustrator 19.0.0, SVG Export Plug-In . SVG Version: 6.00 Build 0)  -->
<svg version="1.1" id="Capa_1" xmlns="http://www.w3.org/2000/svg" xmlns:xlink="http://www.w3.org/1999/xlink" x="0px" y="0px"
	 viewBox="0 0 512 512" style="enable-background:new 0 0 512 512;" xml:space="preserve">
<path d="M77.724,376.496c-26.648,39.668-7.33,106.876,32.714,106.876c25.763,0,44.96-29.081,44.96-63.263
	C155.398,361.217,104.71,336.329,77.724,376.496z M110.438,468.371c-16.239,0-29.959-22.101-29.959-48.262
	s13.72-48.262,29.959-48.262s29.959,22.101,29.959,48.262S126.677,468.371,110.438,468.371z"/>
<path d="M105.719,389.535c-12.897,0-23,13.43-23,30.575s10.104,30.575,23,30.575c12.898,0,23.001-13.43,23.001-30.575
	S118.618,389.535,105.719,389.535z M105.719,435.682c-3.262,0-7.999-6.066-7.999-15.574s4.737-15.574,7.999-15.574s8,6.066,8,15.574
	S108.981,435.682,105.719,435.682z"/>
<path d="M397.447,377.348c4.143,0,7.5-3.358,7.5-7.5s-3.357-7.5-7.5-7.5h-40.271c-4.143,0-7.5,3.358-7.5,7.5s3.357,7.5,7.5,7.5
	H397.447z"/>
<path d="M275.146,377.348h44.679c4.143,0,7.5-3.358,7.5-7.5s-3.357-7.5-7.5-7.5h-44.679c-4.143,0-7.5,3.358-7.5,7.5
	S271.003,377.348,275.146,377.348z"/>
<path d="M229.225,362.347h-20.503c-4.143,0-7.5,3.358-7.5,7.5s3.357,7.5,7.5,7.5h20.503c4.143,0,7.5-3.358,7.5-7.5
	S233.368,362.347,229.225,362.347z"/>
<path d="M412.181,395.775H300.204c-4.143,0-7.5,3.358-7.5,7.5s3.357,7.5,7.5,7.5h111.977c4.143,0,7.5-3.358,7.5-7.5
	S416.323,395.775,412.181,395.775z"/>
<path d="M221.352,395.775c-4.143,0-7.5,3.358-7.5,7.5s3.357,7.5,7.5,7.5h41.165c4.143,0,7.5-3.358,7.5-7.5s-3.357-7.5-7.5-7.5
	H221.352z"/>
<path d="M418.629,436.703c0-4.142-3.357-7.5-7.5-7.5h-63.648c-4.143,0-7.5,3.358-7.5,7.5s3.357,7.5,7.5,7.5h63.648
	C415.271,444.204,418.629,440.846,418.629,436.703z"/>
<path d="M221.352,444.204h87.269c4.143,0,7.5-3.358,7.5-7.5s-3.357-7.5-7.5-7.5h-87.269c-4.143,0-7.5,3.358-7.5,7.5
	S217.209,444.204,221.352,444.204z"/>
<path d="M359.342,462.63c-4.143,0-7.5,3.358-7.5,7.5s3.357,7.5,7.5,7.5h38.106c4.143,0,7.5-3.358,7.5-7.5s-3.357-7.5-7.5-7.5
	H359.342z"/>
<path d="M277.444,462.63h-68.722c-4.143,0-7.5,3.358-7.5,7.5s3.357,7.5,7.5,7.5h68.722c4.143,0,7.5-3.358,7.5-7.5
	S281.587,462.63,277.444,462.63z"/>
<path d="M313.803,477.631h7.271c4.143,0,7.5-3.358,7.5-7.5s-3.357-7.5-7.5-7.5h-7.271c-4.143,0-7.5,3.358-7.5,7.5
	S309.661,477.631,313.803,477.631z"/>
<path d="M459.419,430.201c-4.096-0.645-7.933,2.148-8.579,6.239c-5.539,35.09-28.406,60.559-54.372,60.559h-96.48
	c-4.143,0-7.5,3.358-7.5,7.5s3.357,7.5,7.5,7.5h96.48c16.703,0,32.885-7.658,45.566-21.564
	c12.064-13.231,20.454-31.577,23.624-51.656C466.303,434.688,463.51,430.847,459.419,430.201z"/>
<path d="M264.986,496.999h-109.26c42.488-36.39,42.29-117.558,0-153.78c4.048,0,236.154,0,240.741,0
	c25.966,0,48.833,25.469,54.372,60.559c0.646,4.091,4.483,6.886,8.579,6.239c4.091-0.646,6.884-4.486,6.238-8.579
	c-3.17-20.08-11.561-38.425-23.624-51.656c-12.681-13.906-28.862-21.564-45.566-21.564h-79.587
	c3.479-18.068,10.662-35.21,21.071-50.324c2.654,1.368,5.632,1.898,8.8,1.391l9.801,10.206c5.386,5.609,14.281,5.773,19.874,0.402
	l18.28-17.556c5.589-5.368,5.77-14.283,0.402-19.874l-9.58-9.975c0.874-3.55,0.371-7.369-1.525-10.614l6.823-6.552
	c4.544-4.364,4.691-11.575,0.325-16.119l-59.508-61.966c-4.448-4.631-11.671-4.597-16.12-0.327l-6.565,6.304
	c-3.335-2.997-7.851-4.271-12.377-3.348L156.811,4.321c-5.374-5.598-14.27-5.782-19.873-0.402l-18.28,17.555
	c-5.603,5.381-5.784,14.271-0.402,19.875l139.998,145.783c-0.737,3.639-0.056,7.254,1.798,10.278
	c-21.333,13.331-46.309,20.414-71.613,20.269c-3.85-0.025-8.099-0.844-12.704,2.804c-4.579,3.612-5.4,7.948-4.844,13.422
	c3.549,35.011,19.598,68.875,47.262,94.315H116.896c-3.616,0-7.188,0.346-10.692,1.026c-57.53,11.172-80.214,103.905-38.699,156.683
	C80.741,502.76,98.209,512,116.896,512h148.09c4.143,0,7.5-3.358,7.5-7.5S269.129,496.999,264.986,496.999z M366.717,278.419
	l-7.392-7.698c1.673-1.607,14.756-14.171,16.917-16.246l7.392,7.697L366.717,278.419z M323.32,160.224l54.52,56.773l-3.931,3.775
	l-13.514-14.072l-41.006-42.701L323.32,160.224z M299.436,164.88c17.815,18.551,68.086,70.898,71.218,74.16
	c-23.892,22.944-21.065,20.229-26.167,25.127l-71.219-74.161C286.778,177.035,285.694,178.077,299.436,164.88z M129.728,31.64
	l16.918-16.246l137.596,143.279c-1.688,1.621-15.01,14.414-16.918,16.247L129.728,31.64z M270.354,208.628l56.542,58.878
	c-12.509,17.571-21.016,37.713-24.944,58.965c-43.598-7.016-84.473-44.272-91.372-95.363
	C231.842,228.012,252.352,220.36,270.354,208.628z M185.833,232.648c2.435,0.058,6.984,0.02,9.809-0.101
	c5.071,38.33,27.954,75.129,66.53,95.671h-20.178C211.56,306.843,190.049,272.889,185.833,232.648z M116.896,496.998
	c-28.767,0-52.506-30.316-55.361-69.039c-3.35-45.47,22.559-84.74,55.361-84.74c30.685,0,55.649,34.493,55.649,76.89
	S147.581,496.998,116.896,496.998z"/>
<g>
</g>
<g>
</g>
<g>
</g>
<g>
</g>
<g>
</g>
<g>
</g>
<g>
</g>
<g>
</g>
<g>
</g>
<g>
</g>
<g>
</g>
<g>
</g>
<g>
</g>
<g>
</g>
<g>
</g>
</svg>
